<?xml version="1.0" standalone="no"?>
<!DOCTYPE svg PUBLIC "-//W3C//DTD SVG 20010904//EN"
 "http://www.w3.org/TR/2001/REC-SVG-20010904/DTD/svg10.dtd">
<svg version="1.0" xmlns="http://www.w3.org/2000/svg"
 width="700.000000pt" height="700.000000pt" viewBox="0 0 700.000000 700.000000"
 preserveAspectRatio="xMidYMid meet">
<metadata>
Created by potrace 1.14, written by Peter Selinger 2001-2017
</metadata>
<g transform="translate(0.000000,700.000000) scale(0.100000,-0.100000)"
fill="#000000" stroke="none">
<path d="M3618 5849 c-171 -26 -339 -118 -499 -271 -66 -63 -177 -199 -212
-260 -26 -43 -95 -216 -103 -253 -4 -21 -28 -83 -48 -125 -8 -17 -26 -29 -56
-38 -133 -39 -182 -57 -270 -101 -219 -109 -398 -244 -436 -328 -17 -39 -11
-133 12 -171 32 -54 141 -116 284 -161 159 -49 149 -42 109 -79 -19 -18 -54
-43 -79 -55 -73 -37 -100 -58 -100 -78 0 -32 41 -44 195 -55 50 -3 91 -8 93
-9 2 -2 -26 -68 -61 -147 -62 -137 -103 -249 -114 -312 -2 -16 -8 -39 -12 -50
-14 -37 -20 -336 -9 -421 19 -139 58 -235 98 -235 24 0 34 16 50 75 13 51 50
138 56 133 1 -2 5 -37 9 -78 10 -136 20 -193 46 -290 12 -41 22 -80 23 -87 1
-7 5 -16 9 -19 4 -4 7 -16 7 -26 0 -10 4 -26 9 -36 5 -9 26 -51 45 -92 44 -92
157 -245 196 -265 26 -13 30 -13 45 2 14 14 16 31 13 95 -3 46 -1 75 4 70 5
-5 29 -67 53 -138 37 -111 54 -178 80 -329 13 -75 16 -92 26 -122 20 -63 92
-25 119 62 17 54 28 63 35 29 3 -16 10 -42 15 -59 8 -26 55 -210 65 -255 39
-166 63 -214 105 -203 60 16 160 217 220 440 12 46 24 83 26 83 2 0 13 -22 25
-49 29 -68 62 -97 106 -92 13 1 29 69 38 156 17 164 22 191 72 355 19 63 37
123 40 133 9 34 15 9 18 -78 3 -76 14 -115 34 -115 25 0 107 111 183 250 61
111 107 261 134 440 4 25 12 77 18 115 l12 70 24 -63 c64 -165 120 -144 155
58 25 141 22 445 -4 513 -5 12 -9 27 -9 32 -5 56 -54 193 -125 346 -56 119
-59 113 63 116 130 4 170 15 170 49 0 18 -12 32 -47 53 -122 74 -153 96 -153
108 0 7 37 23 88 38 230 68 297 105 351 195 26 43 28 118 5 166 -46 97 -307
263 -579 368 -185 72 -180 68 -210 150 -15 39 -31 82 -36 95 -6 13 -16 51 -24
83 l-13 59 29 34 c63 72 109 82 388 86 235 4 429 48 488 111 47 50 9 89 -104
108 -108 17 -98 15 -229 54 -106 32 -163 51 -414 141 -84 30 -212 64 -269 71
-76 9 -224 11 -273 3z m116 -135 c26 -10 6 -33 -68 -76 -88 -50 -99 -60 -147
-124 -30 -41 -45 -53 -76 -59 -57 -10 -83 -30 -83 -66 0 -25 6 -32 33 -43 17
-8 57 -16 88 -19 63 -7 89 -15 89 -28 0 -5 -8 -9 -17 -10 -33 -2 -147 -7 -233
-9 -47 -2 -97 -7 -113 -13 -52 -17 -62 -68 -22 -111 24 -26 29 -27 88 -22 199
19 233 19 250 1 20 -20 22 -54 4 -79 -9 -12 -30 -18 -72 -21 -244 -15 -289
-19 -365 -31 -14 -2 -51 -6 -82 -10 -57 -6 -58 -6 -58 18 0 22 20 79 65 183
89 206 266 376 487 469 102 43 196 64 232 50z m-119 -838 c132 -8 226 -22 270
-41 37 -15 58 -45 49 -69 -8 -22 -17 -22 -181 -11 -143 10 -413 11 -538 1
-342 -25 -621 -92 -881 -211 -88 -41 -114 -49 -114 -37 0 39 237 166 443 238
174 61 317 95 487 119 163 22 230 24 465 11z m-749 -469 c2 -1 -7 -32 -20 -67
-37 -106 -113 -213 -184 -260 -25 -16 -49 -30 -53 -30 -4 0 21 60 55 133 35
72 66 145 70 160 4 16 17 39 30 52 19 19 31 23 62 19 21 -3 39 -6 40 -7z m597
-6 c4 -4 8 -46 8 -92 0 -100 -10 -113 -98 -124 -60 -7 -185 -45 -238 -72 -140
-72 -266 -246 -314 -434 -30 -119 -15 -179 45 -179 28 0 35 9 74 110 81 210
156 311 273 368 79 40 142 53 232 51 125 -3 242 -55 336 -149 52 -52 117 -177
143 -274 8 -33 24 -68 35 -79 22 -22 64 -26 86 -7 36 30 5 195 -61 330 -59
120 -145 210 -250 263 -38 19 -76 43 -84 52 -8 9 -14 43 -15 83 -2 120 -1 122
112 127 53 3 68 0 84 -16 10 -10 19 -27 19 -37 0 -55 30 -123 89 -200 98 -129
159 -234 221 -377 14 -34 48 -163 79 -307 12 -53 3 -62 -48 -47 -47 14 -62 5
-55 -35 20 -118 21 -148 14 -336 -3 -69 -32 -195 -50 -213 -4 -4 -10 18 -14
49 -32 276 -143 457 -227 373 -23 -23 -22 -32 18 -169 22 -76 25 -105 27 -265
0 -99 -2 -193 -6 -210 -15 -67 -34 -116 -43 -115 -5 1 -19 33 -30 71 -23 75
-61 129 -94 129 -20 0 -37 -39 -46 -108 -1 -15 -6 -52 -10 -82 -4 -30 -34
-162 -66 -293 -51 -202 -67 -271 -94 -398 -19 -91 -70 -258 -76 -252 -4 4 -10
25 -13 45 -3 21 -11 59 -17 85 -6 27 -12 55 -14 63 -12 57 -47 178 -116 399
-86 273 -104 343 -113 432 -9 95 -30 122 -81 103 -24 -9 -42 -52 -51 -119 -4
-33 -9 -63 -10 -67 -1 -5 -2 -16 -3 -25 -2 -30 -21 0 -36 57 -45 172 -39 407
17 593 23 76 19 110 -16 132 -91 60 -196 -149 -205 -410 -2 -38 -2 -39 -17
-20 -33 44 -56 156 -59 290 -1 86 4 138 29 254 10 46 -28 58 -100 31 -12 -5
-24 -7 -27 -4 -16 16 86 389 138 503 30 64 50 96 154 236 72 97 86 123 95 168
14 71 26 111 36 117 6 4 48 8 93 9 45 1 82 3 83 4 6 6 250 -6 257 -12z m643 1
c6 -4 22 -46 37 -93 15 -47 44 -123 66 -170 22 -46 38 -86 36 -88 -9 -8 -84
50 -118 91 -68 84 -128 216 -114 252 7 17 72 23 93 8z"/>
<path d="M3385 3910 c-169 -39 -400 -258 -413 -390 -5 -59 8 -80 50 -80 44 0
63 14 96 72 39 68 81 111 150 155 74 48 138 75 176 75 74 0 216 -105 337 -250
21 -25 35 -32 62 -32 43 0 56 18 51 74 -6 60 -43 125 -115 197 -125 126 -293
202 -394 179z"/>
<path d="M3402 3250 c-18 -11 -35 -32 -39 -47 -12 -50 -4 -307 13 -400 15 -79
113 -94 130 -20 4 18 6 120 6 227 -2 170 -4 198 -20 219 -27 36 -54 42 -90 21z"/>
</g>
</svg>
