<?xml version="1.0" standalone="no"?>
<!DOCTYPE svg PUBLIC "-//W3C//DTD SVG 20010904//EN"
 "http://www.w3.org/TR/2001/REC-SVG-20010904/DTD/svg10.dtd">
<svg version="1.0" xmlns="http://www.w3.org/2000/svg"
 width="1024.000000pt" height="1024.000000pt" viewBox="0 0 1024.000000 1024.000000"
 preserveAspectRatio="xMidYMid meet">
<metadata>
Created by potrace 1.16, written by Peter Selinger 2001-2019
</metadata>
<g transform="translate(0.000000,1024.000000) scale(0.100000,-0.100000)"
fill="currentColor" stroke="none">
<path d="M5305 8560 c-196 -28 -382 -109 -570 -250 -193 -145 -420 -401 -505
-569 -30 -60 -99 -242 -145 -381 -58 -178 -55 -174 -175 -201 -198 -43 -450
-167 -736 -360 -93 -62 -208 -170 -246 -228 -25 -40 -28 -54 -28 -130 0 -109
21 -156 99 -217 102 -80 218 -131 451 -199 l115 -33 -52 -51 c-35 -33 -83 -65
-147 -95 -105 -50 -135 -80 -116 -116 19 -36 67 -47 250 -60 96 -7 176 -14
178 -15 1 -1 -38 -87 -88 -191 -96 -199 -143 -328 -186 -509 -24 -98 -27 -136
-31 -350 -4 -212 -3 -253 16 -356 25 -141 54 -238 82 -273 17 -22 28 -26 57
-24 33 3 38 7 54 48 9 25 24 76 32 115 9 38 29 88 44 110 l27 40 7 -121 c15
-284 103 -624 218 -842 47 -90 147 -232 216 -307 58 -64 96 -77 127 -47 22 23
26 85 12 217 -5 55 -5 58 9 35 22 -40 104 -271 136 -388 17 -59 43 -194 59
-301 32 -206 41 -231 90 -231 54 0 95 55 136 179 l18 54 14 -34 c8 -19 50
-180 94 -359 44 -179 87 -342 96 -363 32 -73 87 -73 153 0 74 80 190 348 245
565 15 56 33 115 42 132 l17 31 8 -38 c20 -96 92 -187 149 -187 43 0 56 30 69
155 31 314 48 402 120 617 28 81 50 158 50 173 0 16 6 25 15 25 13 0 15 -21
15 -128 0 -137 10 -172 52 -172 36 0 102 80 190 230 113 193 112 191 153 297
68 180 83 242 136 596 13 81 26 147 30 147 3 0 18 -37 33 -82 30 -96 66 -155
101 -164 72 -18 96 39 136 321 18 125 20 181 16 335 -9 344 -62 544 -237 905
-27 55 -52 112 -55 126 l-7 27 169 4 c212 5 252 20 243 88 -3 26 -32 47 -135
99 -56 28 -116 67 -135 86 -30 31 -32 37 -20 50 8 8 85 33 170 55 115 30 186
56 275 99 126 61 145 79 207 194 25 45 24 158 -2 214 -72 159 -516 431 -953
584 -96 33 -149 57 -164 74 -12 14 -50 110 -87 224 -53 159 -64 204 -57 224
15 38 69 95 118 124 78 45 136 53 413 53 279 0 361 9 560 60 147 38 219 74
244 121 17 32 18 40 6 68 -17 43 -48 56 -155 70 -49 7 -129 21 -176 31 -111
24 -465 138 -639 205 -185 72 -337 120 -455 144 -114 23 -376 35 -470 21z
m173 -213 c6 -29 -26 -56 -123 -104 -102 -51 -161 -102 -211 -184 -34 -57 -56
-72 -124 -84 -83 -15 -115 -44 -108 -100 5 -49 43 -66 172 -80 113 -12 146
-24 146 -50 0 -10 -58 -14 -247 -18 -142 -3 -264 -10 -285 -16 -71 -22 -96
-86 -58 -148 38 -63 57 -66 261 -43 241 27 279 17 279 -73 0 -19 -8 -45 -18
-57 -17 -21 -29 -23 -196 -31 -227 -10 -383 -25 -519 -49 -114 -20 -137 -19
-137 10 0 70 131 366 220 500 104 155 306 329 490 420 150 75 323 130 400 127
44 -2 55 -6 58 -20z m-113 -1218 c282 -21 395 -60 395 -137 0 -59 -19 -61
-305 -36 -328 28 -685 19 -1035 -27 -417 -54 -640 -116 -1010 -282 -91 -41
-167 -73 -169 -71 -11 10 57 89 102 118 58 37 312 159 427 204 313 124 710
219 1001 241 126 10 394 5 594 -10z m-1175 -679 c0 -117 -150 -378 -267 -463
-57 -41 -113 -71 -120 -63 -3 3 8 27 24 53 44 71 147 297 173 378 29 92 45
105 126 105 35 0 64 -4 64 -10z m873 -9 c14 -11 17 -34 17 -138 0 -116 -1
-125 -23 -147 -18 -18 -38 -24 -94 -29 -96 -8 -270 -58 -370 -108 -227 -110
-437 -417 -483 -703 -22 -136 1 -196 76 -196 48 0 69 25 98 119 36 115 117
289 171 370 126 191 362 303 600 288 179 -12 343 -85 467 -208 67 -66 84 -92
137 -200 53 -109 70 -157 95 -271 3 -14 18 -40 32 -57 22 -26 33 -31 70 -31
32 0 50 6 65 21 20 20 21 29 16 108 -8 128 -40 241 -107 376 -94 190 -220 319
-382 390 -124 55 -133 67 -133 198 0 56 4 114 8 129 10 36 48 47 171 50 91 2
100 1 117 -20 10 -13 20 -48 24 -80 12 -107 32 -157 89 -224 163 -193 311
-447 381 -652 32 -96 78 -285 96 -390 16 -92 9 -102 -54 -80 -102 36 -115 17
-86 -122 19 -96 21 -127 16 -303 -3 -108 -11 -218 -17 -246 -14 -61 -61 -208
-65 -203 -2 2 -13 73 -25 158 -32 233 -96 397 -186 480 -47 44 -69 48 -115 25
-57 -30 -62 -80 -18 -203 16 -48 37 -118 45 -157 22 -97 30 -434 15 -550 -13
-92 -57 -245 -72 -245 -8 0 -20 35 -43 127 -20 81 -47 134 -86 167 -54 45 -89
32 -97 -35 -3 -24 -9 -46 -13 -49 -3 -3 -11 -59 -17 -125 -8 -95 -27 -181 -87
-410 -42 -159 -95 -375 -117 -480 -35 -166 -70 -309 -126 -505 -14 -49 -17
-52 -25 -31 -4 13 -24 105 -44 205 -26 137 -62 264 -144 521 -192 603 -196
618 -209 778 -11 135 -42 176 -112 147 -49 -21 -68 -66 -85 -202 -8 -68 -16
-127 -18 -133 -6 -20 -37 44 -55 116 -62 241 -53 579 20 826 47 160 48 166 6
208 -28 28 -43 35 -75 35 -35 0 -45 -6 -76 -41 -94 -110 -166 -353 -166 -560
0 -64 -2 -70 -16 -58 -26 21 -43 63 -68 168 -46 188 -44 434 5 598 37 124 3
139 -170 75 -25 -9 -7 90 58 327 114 409 147 482 326 712 70 89 138 185 151
213 13 28 30 93 38 145 9 52 20 99 25 104 16 16 160 25 397 23 179 -1 235 -4
247 -15z m955 -3 c5 -7 24 -67 42 -133 22 -83 52 -159 97 -248 35 -71 62 -131
60 -134 -10 -10 -87 39 -134 84 -88 86 -177 236 -209 351 -24 85 -19 92 64 92
44 0 73 -5 80 -12z"/>
<path d="M4915 5711 c-144 -53 -271 -139 -397 -269 -113 -116 -169 -216 -176
-312 -6 -77 15 -100 88 -100 61 0 81 17 129 106 67 127 174 220 347 300 116
54 146 55 244 5 146 -75 253 -164 332 -278 59 -86 83 -103 141 -103 59 0 77
21 77 88 0 137 -131 311 -338 449 -176 118 -331 157 -447 114z"/>
<path d="M5010 4773 c-42 -13 -64 -31 -81 -65 -17 -33 -19 -60 -19 -220 0
-196 20 -390 45 -438 18 -35 43 -50 85 -50 42 0 67 15 85 50 12 24 15 79 14
322 0 200 -4 304 -12 327 -17 49 -77 87 -117 74z"/>
</g>
</svg>
