<?xml version="1.0" encoding="iso-8859-1"?>
<!-- Uploaded to: SVG Repo, www.svgrepo.com, Generator: SVG Repo Mixer Tools -->
<!DOCTYPE svg PUBLIC "-//W3C//DTD SVG 1.1//EN" "http://www.w3.org/Graphics/SVG/1.1/DTD/svg11.dtd">
<svg fill="none" version="1.1" id="Capa_1" xmlns="http://www.w3.org/2000/svg" xmlns:xlink="http://www.w3.org/1999/xlink"
	 height="1em" viewBox="0 0 606.29 606.289" xml:space="preserve">
<g>
	<g>
		<circle cx="207.61" cy="301.89" r="21.113" fill="currentColor"/>
		<path d="M207.61,323.503c-11.917,0-21.612-9.695-21.612-21.613c0-11.917,9.695-21.612,21.612-21.612
			c11.917,0,21.613,9.695,21.613,21.612C229.223,313.808,219.527,323.503,207.61,323.503z M207.61,281.277
			c-11.366,0-20.612,9.247-20.612,20.612c0,11.366,9.247,20.613,20.612,20.613s20.613-9.247,20.613-20.613
			C228.223,290.524,218.976,281.277,207.61,281.277z" fill="currentColor" />
	</g>
	<g>
		<circle cx="303.106" cy="301.89" r="21.113" fill="currentColor"/>
		<path d="M303.106,323.503c-11.917,0-21.613-9.695-21.613-21.613c0-11.917,9.695-21.612,21.613-21.612
			c11.917,0,21.612,9.695,21.612,21.612C324.718,313.808,315.023,323.503,303.106,323.503z M303.106,281.277
			c-11.366,0-20.613,9.247-20.613,20.612c0,11.366,9.247,20.613,20.613,20.613c11.365,0,20.612-9.247,20.612-20.613
			C323.718,290.524,314.471,281.277,303.106,281.277z" fill="currentColor"/>
	</g>
	<g>
		<circle cx="398.602" cy="301.89" r="21.113" fill="currentColor"/>
		<path d="M398.602,323.503c-11.918,0-21.613-9.695-21.613-21.613c0-11.917,9.695-21.612,21.613-21.612
			c11.917,0,21.612,9.695,21.612,21.612C420.214,313.808,410.519,323.503,398.602,323.503z M398.602,281.277
			c-11.366,0-20.613,9.247-20.613,20.612c0,11.366,9.247,20.613,20.613,20.613c11.365,0,20.612-9.247,20.612-20.613
			C419.214,290.524,409.967,281.277,398.602,281.277z" fill="currentColor"/>
	</g>
	<g>
		<path d="M143.65,469.15c10.981,10.981,25.582,17.029,41.111,17.029s30.13-6.048,41.111-17.029
			c10.98-10.98,17.028-25.58,17.028-41.11s-6.047-30.13-17.029-41.111l-85.038-85.039l82.529-82.528
			c22.669-22.669,22.669-59.554,0-82.223c-10.981-10.981-25.582-17.029-41.111-17.029c-15.53,0-30.13,6.048-41.111,17.029
			L17.501,260.779c-22.668,22.669-22.668,59.554,0,82.223L143.65,469.15z M47.793,291.071l123.64-123.64
			c2.988-2.987,6.903-4.481,10.819-4.481s7.831,1.494,10.819,4.481l0,0c5.975,5.975,5.975,15.663,0,21.637L91.068,291.07
			c-5.975,5.975-5.975,15.662,0,21.638L195.58,417.22c5.975,5.975,5.975,15.662,0,21.637l0,0c-2.987,2.987-6.903,4.481-10.819,4.481
			s-7.831-1.494-10.819-4.481L47.793,312.709C41.818,306.734,41.818,297.046,47.793,291.071z" fill="currentColor"/>
		<path d="M184.761,486.68c-15.664,0-30.39-6.1-41.465-17.176L17.147,343.355c-22.863-22.863-22.863-60.066,0-82.93l123.64-123.641
			c11.076-11.076,25.802-17.175,41.465-17.175s30.389,6.1,41.464,17.175c22.864,22.864,22.864,60.066,0,82.93l-82.175,82.175
			l84.685,84.686c11.076,11.075,17.175,25.802,17.175,41.465s-6.1,30.389-17.175,41.464
			C215.151,480.58,200.425,486.68,184.761,486.68z M182.252,120.609c-15.396,0-29.871,5.996-40.758,16.882L17.854,261.132
			c-22.473,22.474-22.473,59.042,0,81.516l126.149,126.148c10.887,10.887,25.361,16.883,40.758,16.883s29.871-5.996,40.758-16.883
			c10.886-10.887,16.882-25.361,16.882-40.757c0-15.396-5.996-29.871-16.882-40.758l-85.392-85.393l82.882-82.882
			c22.474-22.474,22.474-59.042,0-81.516C212.123,126.605,197.648,120.609,182.252,120.609z M184.761,443.838
			c-4.22,0-8.188-1.644-11.173-4.628L47.439,313.062c-2.984-2.984-4.628-6.952-4.628-11.172c0-4.221,1.644-8.188,4.628-11.172
			l123.64-123.64c2.984-2.984,6.952-4.627,11.172-4.627s8.188,1.644,11.172,4.627c2.984,2.984,4.628,6.952,4.628,11.172
			s-1.644,8.188-4.628,11.172L91.422,291.424c-5.771,5.771-5.771,15.16,0,20.931l104.512,104.512
			c2.984,2.984,4.628,6.951,4.628,11.172s-1.644,8.188-4.628,11.172S188.981,443.838,184.761,443.838z M182.252,163.45
			c-3.953,0-7.67,1.54-10.465,4.334l-123.64,123.64c-2.795,2.795-4.335,6.512-4.335,10.465s1.54,7.67,4.335,10.465l126.149,126.147
			c2.796,2.796,6.513,4.335,10.466,4.335c3.953,0,7.67-1.539,10.465-4.335c2.795-2.795,4.335-6.512,4.335-10.465
			s-1.54-7.67-4.335-10.465L90.715,313.062c-6.16-6.161-6.16-16.185,0-22.345l102.002-102.002c2.795-2.795,4.335-6.512,4.335-10.465
			s-1.54-7.67-4.335-10.465C189.921,164.99,186.205,163.45,182.252,163.45z" fill="currentColor"/>
	</g>
	<g>
		<path d="M465.149,137.139c-10.981-10.981-25.582-17.029-41.111-17.029s-30.13,6.047-41.111,17.029
			c-22.669,22.669-22.669,59.554,0,82.223l82.528,82.528l-85.038,85.038c-22.668,22.669-22.668,59.554,0,82.223
			c10.981,10.981,25.582,17.029,41.111,17.029s30.13-6.048,41.111-17.029l126.149-126.148c22.669-22.669,22.669-59.554,0-82.223
			L465.149,137.139z M558.496,312.709L432.347,438.858c-2.988,2.987-6.903,4.48-10.819,4.48c-3.915,0-7.831-1.493-10.818-4.48
			c-5.976-5.976-5.976-15.663,0-21.638l104.512-104.512c5.975-5.975,5.975-15.662,0-21.637L413.218,189.07
			c-5.975-5.975-5.975-15.663,0-21.637c2.987-2.987,6.903-4.481,10.819-4.481c3.915,0,7.831,1.494,10.818,4.481l123.64,123.64
			C564.471,297.046,564.471,306.734,558.496,312.709z" fill="currentColor"/>
		<path d="M421.528,486.68c-15.663,0-30.389-6.1-41.465-17.176c-22.863-22.864-22.863-60.065,0-82.93l84.685-84.685l-82.175-82.174
			c-22.864-22.864-22.864-60.066,0-82.93c11.075-11.076,25.802-17.175,41.465-17.175s30.39,6.1,41.465,17.175l123.64,123.64
			c22.863,22.864,22.863,60.067,0,82.93L462.993,469.504C451.917,480.58,437.191,486.68,421.528,486.68z M424.038,120.61
			c-15.396,0-29.871,5.996-40.758,16.882c-22.474,22.474-22.474,59.042,0,81.516l82.882,82.881l-85.392,85.392
			c-22.473,22.474-22.473,59.042,0,81.516c10.887,10.887,25.362,16.883,40.758,16.883s29.871-5.996,40.758-16.883l126.149-126.148
			c22.474-22.474,22.474-59.042,0-81.516l-123.64-123.64C453.909,126.606,439.434,120.61,424.038,120.61z M421.528,443.839
			c-4.221,0-8.188-1.644-11.172-4.627c-2.984-2.984-4.628-6.952-4.628-11.173s1.644-8.188,4.628-11.172l104.512-104.512
			c5.771-5.771,5.771-15.16,0-20.93L412.865,189.423c-6.16-6.161-6.16-16.184,0-22.344c2.984-2.984,6.952-4.628,11.173-4.628
			c4.22,0,8.188,1.644,11.172,4.628l123.64,123.64c2.984,2.983,4.628,6.951,4.628,11.171s-1.644,8.188-4.628,11.172L432.701,439.212
			C429.716,442.195,425.749,443.839,421.528,443.839z M424.038,163.451c-3.953,0-7.67,1.54-10.466,4.335
			c-5.771,5.77-5.771,15.16,0,20.93l102.003,102.002c6.16,6.161,6.16,16.184,0,22.344L411.063,417.574
			c-2.796,2.795-4.335,6.512-4.335,10.465s1.539,7.67,4.335,10.466c2.795,2.795,6.512,4.334,10.465,4.334s7.67-1.539,10.466-4.334
			l126.148-126.149c2.796-2.795,4.335-6.512,4.335-10.465c0-3.953-1.539-7.669-4.335-10.464l-123.64-123.64
			C431.707,164.991,427.991,163.451,424.038,163.451z" fill="currentColor"/>
	</g>
</g>
</svg>